<svg xmlns="http://www.w3.org/2000/svg" width="54" height="48.191" viewBox="0 0 54 48.191">
  <path id="info" d="M26,0C11.663,0,0,10.36,0,23.1s11.663,23.1,26,23.1,26-10.36,26-23.1S40.337,0,26,0Zm2,36.42a2.014,2.014,0,0,1-4,0V34.643a2.014,2.014,0,0,1,4,0Zm2.874-14.6A5.737,5.737,0,0,0,28,26.789v2.525a2.014,2.014,0,0,1-4,0V26.789a9.116,9.116,0,0,1,4.706-7.952A4.319,4.319,0,0,0,31,15.038c-.036-2.341-2.293-4.345-4.928-4.377a5.083,5.083,0,0,0-3.582,1.277A4.183,4.183,0,0,0,21,15.1a1.9,1.9,0,0,1-2,1.777A1.9,1.9,0,0,1,17,15.1a7.523,7.523,0,0,1,2.681-5.692A9.541,9.541,0,0,1,26,7.106h.13c4.824.06,8.8,3.595,8.871,7.88A7.766,7.766,0,0,1,30.874,21.823Z" transform="translate(1 1)" fill="#fff" stroke="#000" stroke-width="2"/>
</svg>
