<svg xmlns="http://www.w3.org/2000/svg" width="50.652" height="50.652" viewBox="0 0 50.652 50.652">
  <g id="contorno-de-boton-de-encendido" transform="translate(0.5 0.5)">
    <g id="Grupo_865" data-name="Grupo 865">
      <path id="Trazado_2501" data-name="Trazado 2501" d="M49.652,24.826A24.826,24.826,0,1,0,24.826,49.652,24.854,24.854,0,0,0,49.652,24.826Zm-22.388-.038a2.355,2.355,0,0,1-4.711,0V12.535a2.355,2.355,0,1,1,4.711,0Zm13.593.079A16.031,16.031,0,1,1,13.5,13.527a2.356,2.356,0,1,1,3.33,3.334,11.316,11.316,0,1,0,16,0,2.357,2.357,0,1,1,3.334-3.332A15.936,15.936,0,0,1,40.857,24.867Z" fill="#fff" stroke="#000" stroke-width="1"/>
    </g>
  </g>
</svg>
