<svg xmlns="http://www.w3.org/2000/svg" width="59.215" height="50.165" viewBox="0 0 59.215 50.165">
  <g id="Grupo_861" data-name="Grupo 861" transform="translate(-550.676 -144.608)">
    <g id="Grupo_859" data-name="Grupo 859" transform="translate(578.065 146.108)">
      <path id="Trazado_2499" data-name="Trazado 2499" d="M593.688,151.763v6.609a5.655,5.655,0,0,0,5.656,5.655h10.949l8.5,6.193-.44-6.193a5.656,5.656,0,0,0,5.661-5.655v-6.609a5.656,5.656,0,0,0-5.661-5.655h-19.01A5.655,5.655,0,0,0,593.688,151.763Z" transform="translate(-593.688 -146.108)" fill="#fafbfc" stroke="#192657" stroke-linecap="round" stroke-linejoin="round" stroke-width="3"/>
      <line id="Línea_125" data-name="Línea 125" x1="15.189" transform="translate(6.106 4.886)" fill="none" stroke="#192657" stroke-linecap="round" stroke-linejoin="round" stroke-width="3"/>
      <line id="Línea_126" data-name="Línea 126" x1="10.838" transform="translate(14.27 12.707)" fill="none" stroke="#192657" stroke-linecap="round" stroke-linejoin="round" stroke-width="3"/>
      <line id="Línea_127" data-name="Línea 127" x1="7.626" transform="translate(17.481 8.797)" fill="none" stroke="#192657" stroke-linecap="round" stroke-linejoin="round" stroke-width="3"/>
      <line id="Línea_128" data-name="Línea 128" x1="4.838" transform="translate(6.59 8.797)" fill="none" stroke="#192657" stroke-linecap="round" stroke-linejoin="round" stroke-width="3"/>
    </g>
    <g id="Grupo_860" data-name="Grupo 860" transform="translate(552.176 164.793)">
      <path id="Trazado_2500" data-name="Trazado 2500" d="M587.994,164.285v7.805a6.679,6.679,0,0,1-6.68,6.68H568.382l-10.04,7.315.52-7.315a6.681,6.681,0,0,1-6.685-6.68v-7.805a6.681,6.681,0,0,1,6.685-6.68h22.452A6.679,6.679,0,0,1,587.994,164.285Z" transform="translate(-552.176 -157.605)" fill="#fafbfc" stroke="#192657" stroke-linecap="round" stroke-linejoin="round" stroke-width="3"/>
      <line id="Línea_129" data-name="Línea 129" x2="17.939" transform="translate(10.667 5.771)" fill="none" stroke="#192657" stroke-linecap="round" stroke-linejoin="round" stroke-width="3"/>
      <line id="Línea_130" data-name="Línea 130" x2="12.801" transform="translate(6.163 15.009)" fill="none" stroke="#192657" stroke-linecap="round" stroke-linejoin="round" stroke-width="3"/>
      <line id="Línea_131" data-name="Línea 131" x2="9.008" transform="translate(6.163 10.39)" fill="none" stroke="#192657" stroke-linecap="round" stroke-linejoin="round" stroke-width="3"/>
      <line id="Línea_132" data-name="Línea 132" x2="5.714" transform="translate(22.321 10.39)" fill="none" stroke="#192657" stroke-linecap="round" stroke-linejoin="round" stroke-width="3"/>
    </g>
  </g>
</svg>
